<svg xmlns="http://www.w3.org/2000/svg" width="104" height="580" fill="none" viewBox="0 0 104 580"><path fill="#99C19A" d="M54 577v3h-6v-3h6ZM48 27a3 3 0 0 1 6 0h-6Zm0 550V27h6v550h-6Z"/><path fill="#99C19A" d="m50.694 463.454 2.046 2.194-4.388 4.092-2.046-2.194 4.388-4.092Zm-27.561-25.159 2.194-2.046-2.194 2.046ZM14 415.108h-3 3ZM11 143a3 3 0 1 1 6 0h-6Zm35.306 324.546-25.367-27.205 4.388-4.092 25.367 27.205-4.388 4.092ZM11 415.108V143h6v272.108h-6Zm9.939 25.233A37 37 0 0 1 11 415.108h6a31 31 0 0 0 8.327 21.141l-4.388 4.092ZM52.03 505.737l-2.263 1.97 3.94 4.525 2.263-1.969-3.94-4.526ZM77.323 487.7l-1.97-2.263 1.97 2.263ZM89 462.054h-3 3ZM89 450h-3 3Zm3-193a3 3 0 1 0-6 0h6ZM55.97 510.263l23.322-20.3-3.94-4.526-23.322 20.3 3.94 4.526ZM92 462.054V450h-6v12.054h6ZM92 450V257h-6v193h6Zm-12.708 39.963A37 37 0 0 0 92 462.054h-6a31.002 31.002 0 0 1-10.647 23.383l3.94 4.526Z"/><circle cx="13.5" cy="13.5" r="10.5" stroke="#99C19A" stroke-width="6" transform="matrix(0 -1 -1 0 104 257)"/><circle cx="13.5" cy="13.5" r="10.5" stroke="#99C19A" stroke-width="6" transform="matrix(0 -1 -1 0 65 27)"/><circle cx="13.5" cy="13.5" r="10.5" stroke="#99C19A" stroke-width="6" transform="matrix(0 -1 -1 0 27 143)"/></svg>
