<svg xmlns="http://www.w3.org/2000/svg" width="577" height="104" fill="none" viewBox="0 0 577 104"><path fill="#99C19A" d="M0 50h-3v6h3v-6Zm550 6a3 3 0 1 0 0-6v6ZM0 56h550v-6H0v6Z"/><path fill="#99C19A" d="m113.546 53.306-2.194-2.046-4.092 4.388 2.194 2.046 4.092-4.388Zm25.159 27.561 2.046-2.194-2.046 2.194ZM161.892 90v3-3ZM434 93a3 3 0 1 0 0-6v6ZM109.454 57.694l27.205 25.367 4.092-4.388-27.205-25.367-4.092 4.388ZM161.892 93H434v-6H161.892v6Zm-25.233-9.939a37 37 0 0 0 25.233 9.94v-6a31 31 0 0 1-21.141-8.328l-4.092 4.388ZM71.263 51.97l-1.97 2.263-4.526-3.94 1.97-2.262 4.526 3.939ZM89.3 26.678l2.263 1.97-2.263-1.97ZM114.946 15v3-3ZM127 15v3-3Zm193-3a3 3 0 1 1 0 6v-6ZM66.737 48.03l20.3-23.322 4.526 3.94-20.3 23.322-4.526-3.94ZM114.946 12H127v6h-12.054v-6ZM127 12h193v6H127v-6ZM87.037 24.708A37 37 0 0 1 114.946 12v6a31 31 0 0 0-23.383 10.647l-4.526-3.939Z"/><circle cx="333.5" cy="13.5" r="10.5" stroke="#99C19A" stroke-width="6"/><circle cx="563.5" cy="52.5" r="10.5" stroke="#99C19A" stroke-width="6"/><circle cx="447.5" cy="90.5" r="10.5" stroke="#99C19A" stroke-width="6"/></svg>
